<svg width="116" height="102" viewBox="0 0 116 102" fill="none" xmlns="http://www.w3.org/2000/svg">
<path d="M108.587 51.0847C108.587 62.6073 103.976 73.6579 95.768 81.8056C87.5604 89.9533 76.4286 94.5306 64.8213 94.5306C53.214 94.5306 42.0821 89.9533 33.8746 81.8056C25.667 73.6579 21.056 62.6073 21.056 51.0848" stroke="#fff" stroke-width="14"/>
<path d="M7 51.0847C7 39.3927 11.611 28.1796 19.8186 19.9121C28.0261 11.6446 39.158 7 50.7653 7C62.3726 7 73.5044 11.6446 81.712 19.9121C89.9196 28.1796 94.5306 39.3927 94.5306 51.0847" stroke="#fff" stroke-width="14"/>
<path d="M30.6396 51.0847C30.6396 45.8318 32.76 40.794 36.5343 37.0797C40.3086 33.3653 45.4276 31.2786 50.7653 31.2786C56.1029 31.2786 61.222 33.3653 64.9963 37.0797C68.7705 40.794 70.8909 45.8318 70.8909 51.0847" stroke="#fff" stroke-width="14"/>
<path d="M84.9469 51.0847C84.9469 56.3377 82.8266 61.3755 79.0523 65.0898C75.278 68.8042 70.1589 70.8909 64.8213 70.8909C59.4836 70.8909 54.3646 68.8042 50.5903 65.0898C46.816 61.3755 44.6956 56.3377 44.6956 51.0848" stroke="#fff" stroke-width="14"/>
</svg>
